<svg width="117" height="117" viewBox="0 0 117 117" fill="none" xmlns="http://www.w3.org/2000/svg">
<g filter="url(#filter0_d_1_178)">
<path fill-rule="evenodd" clip-rule="evenodd" d="M58.5 81C72.031 81 83 70.031 83 56.5C83 42.969 72.031 32 58.5 32C44.969 32 34 42.969 34 56.5C34 70.031 44.969 81 58.5 81Z" fill="white"/>
</g>
<path fill-rule="evenodd" clip-rule="evenodd" d="M61.5025 63.9416C61.5975 64.0088 61.7234 64.0192 61.8288 63.9674C61.9338 63.9157 62 63.8107 62 63.6959V50.3045C62 50.1898 61.9338 50.0848 61.8288 50.033C61.7844 50.0111 61.7356 50.0002 61.6875 50.0002C61.6222 50.0002 61.5572 50.0199 61.5025 50.0589L52.1275 56.7546C52.0472 56.8121 52 56.9034 52 57.0002C52 57.097 52.0472 57.1883 52.1275 57.2458L61.5025 63.9416Z" fill="#2F5BEA"/>
<defs>
<filter id="filter0_d_1_178" x="0" y="0" width="117" height="117" filterUnits="userSpaceOnUse" color-interpolation-filters="sRGB">
<feFlood flood-opacity="0" result="BackgroundImageFix"/>
<feColorMatrix in="SourceAlpha" type="matrix" values="0 0 0 0 0 0 0 0 0 0 0 0 0 0 0 0 0 0 127 0" result="hardAlpha"/>
<feOffset dy="2"/>
<feGaussianBlur stdDeviation="17"/>
<feColorMatrix type="matrix" values="0 0 0 0 0 0 0 0 0 0 0 0 0 0 0 0 0 0 0.205248 0"/>
<feBlend mode="normal" in2="BackgroundImageFix" result="effect1_dropShadow_1_178"/>
<feBlend mode="normal" in="SourceGraphic" in2="effect1_dropShadow_1_178" result="shape"/>
</filter>
</defs>
</svg>
