<svg width="49" height="49" viewBox="0 0 49 49" fill="none" xmlns="http://www.w3.org/2000/svg">
<rect width="49" height="49"/>
<g clip-path="url(#clip0_0_1)">
<rect width="1920" height="3699" transform="translate(-1313 -1131)" fill="white"/>
<rect x="-1177" y="-244" width="1922" height="721" fill="#2F5BEA"/>
<path fill-rule="evenodd" clip-rule="evenodd" d="M24.5 49C38.031 49 49 38.031 49 24.5C49 10.969 38.031 0 24.5 0C10.969 0 0 10.969 0 24.5C0 38.031 10.969 49 24.5 49Z" fill="white" fill-opacity="0.2"/>
<path fill-rule="evenodd" clip-rule="evenodd" d="M27.5025 18.0586C27.5975 17.9913 27.7234 17.981 27.8287 18.0327C27.9337 18.0845 28 18.1895 28 18.3042L28 31.6956C28 31.8104 27.9337 31.9154 27.8287 31.9671C27.7844 31.989 27.7356 32 27.6875 32C27.6222 32 27.5572 31.9802 27.5025 31.9413L18.1275 25.2455C18.0472 25.188 18 25.0967 18 24.9999C18 24.9031 18.0472 24.8118 18.1275 24.7543L27.5025 18.0586Z" fill="white"/>
<g filter="url(#filter0_d_0_1)">
<path fill-rule="evenodd" clip-rule="evenodd" d="M86.5 49C100.031 49 111 38.031 111 24.5C111 10.969 100.031 0 86.5 0C72.969 0 62 10.969 62 24.5C62 38.031 72.969 49 86.5 49Z" fill="white"/>
</g>
</g>
<defs>
<filter id="filter0_d_0_1" x="28" y="-32" width="117" height="117" filterUnits="userSpaceOnUse" color-interpolation-filters="sRGB">
<feFlood flood-opacity="0" result="BackgroundImageFix"/>
<feColorMatrix in="SourceAlpha" type="matrix" values="0 0 0 0 0 0 0 0 0 0 0 0 0 0 0 0 0 0 127 0" result="hardAlpha"/>
<feOffset dy="2"/>
<feGaussianBlur stdDeviation="17"/>
<feColorMatrix type="matrix" values="0 0 0 0 0 0 0 0 0 0 0 0 0 0 0 0 0 0 0.205248 0"/>
<feBlend mode="normal" in2="BackgroundImageFix" result="effect1_dropShadow_0_1"/>
<feBlend mode="normal" in="SourceGraphic" in2="effect1_dropShadow_0_1" result="shape"/>
</filter>
<clipPath id="clip0_0_1">
<rect width="1920" height="3699" fill="white" transform="translate(-1313 -1131)"/>
</clipPath>
</defs>
</svg>
