<svg width="33" height="33" viewBox="0 0 33 33" fill="none" xmlns="http://www.w3.org/2000/svg">
<rect x="0.5" y="0.5" width="32" height="32" rx="16" stroke="white"/>
<path fill-rule="evenodd" clip-rule="evenodd" d="M16.5005 19.8382C16.5872 19.8382 16.6736 19.86 16.7525 19.9035L19.4626 21.3954L18.9452 18.2356C18.9149 18.0518 18.9734 17.8637 19.101 17.7334L21.2935 15.4958L18.2636 15.0348C18.0869 15.0078 17.9344 14.8918 17.8555 14.7244L16.5005 11.8498L15.1454 14.7244C15.0663 14.8918 14.9137 15.0078 14.7373 15.0348L11.7071 15.4958L13.8999 17.7334C14.0275 17.8637 14.0858 18.0518 14.0557 18.2356L13.5381 21.3954L16.2481 19.9035C16.3273 19.86 16.4137 19.8382 16.5005 19.8382ZM20.1822 22.9998C20.0958 22.9998 20.0093 22.9786 19.9299 22.9349L16.5001 21.0469L13.0702 22.9349C12.8875 23.0353 12.6661 23.0186 12.4992 22.8917C12.3322 22.7646 12.2488 22.5495 12.2837 22.3367L12.9388 18.3377L10.1636 15.5057C10.0159 15.355 9.96283 15.1295 10.0265 14.924C10.0905 14.7186 10.2598 14.5691 10.4642 14.5379L14.2989 13.9545L16.0139 10.3161C16.1052 10.1226 16.2938 10 16.5001 10C16.7063 10 16.8946 10.1226 16.986 10.3161L18.7009 13.9545L22.5359 14.5379C22.74 14.5691 22.9097 14.7186 22.9736 14.924C23.037 15.1295 22.9842 15.355 22.8362 15.5057L20.0614 18.3377L20.7164 22.3367C20.7514 22.5495 20.6676 22.7646 20.5009 22.8917C20.4064 22.9635 20.2944 22.9998 20.1822 22.9998Z" fill="white"/>
</svg>
