<svg width="127" height="36" viewBox="0 0 127 36" fill="none" xmlns="http://www.w3.org/2000/svg">
<path fill-rule="evenodd" clip-rule="evenodd" d="M32.2826 15.7941H30.9913C29.7 15.063 24.5348 6.43658 24.3913 4.68205L25.3239 3.14684C25.5391 2.78131 25.3957 2.34268 25.1087 2.12337C24.75 1.90405 24.3196 2.05026 24.1043 2.34268L23.3152 3.73168L23.2435 3.80479C22.6696 4.09721 20.3739 4.46274 16.5 4.46274C12.6261 4.46274 10.3304 4.09721 9.82826 3.80479L9.75652 3.73168L8.96739 2.34268C8.75217 1.97715 8.32174 1.90405 7.96304 2.12337C7.60435 2.34268 7.53261 2.78131 7.74783 3.14684L8.6087 4.68205C8.46522 6.43658 3.3 15.063 2.0087 15.7941H0.717391C0.286957 15.7941 0 16.0865 0 16.5251C0 16.9638 0.286957 17.2562 0.717391 17.2562H2.0087C3.3 17.9872 8.46522 26.6137 8.6087 28.3682L7.67609 29.9034C7.46087 30.2689 7.60435 30.7076 7.8913 30.9269C8.03478 31 8.10652 31 8.25 31C8.46522 31 8.75217 30.8538 8.89565 30.6345L9.68478 29.2455L9.75652 29.1724C10.187 28.8799 12.4826 28.5875 16.4283 28.5875C20.3739 28.5875 22.5978 28.953 23.1 29.1724L23.1717 29.2455L23.9609 30.6345C24.1043 30.8538 24.3196 31 24.6065 31C24.75 31 24.8935 31 24.9652 30.9269C25.3239 30.7076 25.3957 30.2689 25.1804 29.9034L24.3913 28.3682C24.5348 26.6137 29.7 17.9141 30.9913 17.2562H32.2826C32.713 17.2562 33 16.9638 33 16.5251C33 16.0865 32.713 15.7941 32.2826 15.7941ZM25.1804 9.94564C25.8261 11.1153 27.4761 13.9664 28.9826 15.7941H25.2522C24.3913 15.2092 21.6652 10.896 21.3065 9.72633L23.3152 6.29037C23.7457 7.16764 24.3196 8.33732 25.1804 9.94564ZM17.7913 17.2562L20.4457 21.7887C20.5891 21.5694 20.7326 21.277 20.8761 20.9846C20.9478 20.8383 22.0957 18.7183 23.3152 17.2562H17.7913ZM12.1239 20.9846C12.0522 20.8383 10.8326 18.7183 9.68478 17.2562H15.2087L12.5543 21.7887C12.4109 21.5694 12.2674 21.277 12.1239 20.9846L12.1239 20.9846ZM15.2087 15.7941L12.5543 11.2615C12.4109 11.4809 12.2674 11.7733 12.1239 12.0657L12.1239 12.0657C12.0522 12.2119 10.9043 14.332 9.68478 15.7941H15.2087ZM13.8457 10.6036C14.4913 10.6767 15.3522 10.7498 16.5 10.7498C17.6478 10.7498 18.5087 10.6767 19.1543 10.6036L16.5 15.1361L13.8457 10.6036ZM19.1543 22.4467L16.5 17.9141L13.8457 22.4467C14.4913 22.3736 15.3522 22.3005 16.5 22.3005C17.6478 22.3005 18.5087 22.3736 19.1543 22.4467ZM17.7913 15.7941L20.4457 11.2615C20.5891 11.4809 20.7326 11.7733 20.8761 12.0657C20.9478 12.2119 22.1674 14.332 23.3152 15.7941H17.7913ZM22.1674 5.63242C21.0196 5.77864 19.2261 5.92485 16.5 5.92485C13.7739 5.92485 11.9804 5.77864 10.8326 5.55932L12.8413 8.99527C13.2 9.14148 14.4913 9.28769 16.5 9.28769C18.5087 9.28769 19.8 9.14148 20.1587 8.99527L22.1674 5.63242ZM7.81956 9.94564C8.75217 8.33732 9.25435 7.16764 9.61304 6.29037L11.6217 9.72633C11.3348 10.896 8.53696 15.2092 7.67609 15.7941H4.01739C5.52391 14.0395 7.17391 11.1153 7.81956 9.94564ZM4.01739 17.2562C5.52391 19.0838 7.17391 21.9349 7.81956 23.1046C8.68043 24.7129 9.25435 25.8826 9.61304 26.7599L11.6935 23.3239C11.3348 22.1542 8.6087 17.841 7.74783 17.2562H4.01739ZM16.5 27.1254C13.7739 27.1254 11.9804 27.2716 10.8326 27.4178L12.8413 24.055C13.2 23.9088 14.4913 23.7626 16.5 23.7626C18.5087 23.7626 19.8 23.9088 20.1587 24.055L22.1674 27.4178C21.0196 27.2716 19.2261 27.1254 16.5 27.1254ZM23.387 26.7599C23.7457 25.8826 24.2478 24.7129 25.1804 23.1046C25.8261 21.9349 27.4761 19.0107 29.0543 17.2562H25.3239C24.463 17.841 21.6652 22.1542 21.3783 23.3239L23.387 26.7599Z" fill="#FC5C42"/>
<path d="M48.9385 20.751L44.3682 13.8066H48.7607L51.5156 18.3262L54.2959 13.8066H58.6885L54.0674 20.751L58.9043 28H54.499L51.5156 23.1377L48.5195 28H44.127L48.9385 20.751ZM65.3027 18.1738H66.5977C67.8079 18.1738 68.7135 17.9368 69.3145 17.4629C69.9154 16.9805 70.2158 16.2822 70.2158 15.3682C70.2158 14.4456 69.9619 13.7643 69.4541 13.3242C68.9548 12.8841 68.1676 12.6641 67.0928 12.6641H65.3027V18.1738ZM74.1895 15.2285C74.1895 17.2259 73.5632 18.7536 72.3105 19.8115C71.0664 20.8695 69.2933 21.3984 66.9912 21.3984H65.3027V28H61.3672V9.43945H67.2959C69.5472 9.43945 71.2568 9.92611 72.4248 10.8994C73.6012 11.8643 74.1895 13.3073 74.1895 15.2285ZM77.2236 10.1377C77.2236 8.87663 77.9261 8.24609 79.3311 8.24609C80.736 8.24609 81.4385 8.87663 81.4385 10.1377C81.4385 10.7386 81.2607 11.2083 80.9053 11.5469C80.5583 11.877 80.0335 12.042 79.3311 12.042C77.9261 12.042 77.2236 11.4072 77.2236 10.1377ZM81.2607 28H77.3887V13.8066H81.2607V28ZM89.8301 28.2539C88.1628 28.2539 86.8509 27.6064 85.8945 26.3115C84.9466 25.0166 84.4727 23.2223 84.4727 20.9287C84.4727 18.6012 84.9551 16.79 85.9199 15.4951C86.8932 14.1917 88.2305 13.54 89.9316 13.54C91.7174 13.54 93.0801 14.234 94.0195 15.6221H94.1465C93.9518 14.5641 93.8545 13.6204 93.8545 12.791V8.24609H97.7393V28H94.7686L94.0195 26.1592H93.8545C92.9743 27.5557 91.6328 28.2539 89.8301 28.2539ZM91.1885 25.1689C92.1787 25.1689 92.9023 24.8812 93.3594 24.3057C93.8249 23.7301 94.0788 22.7526 94.1211 21.373V20.9541C94.1211 19.4307 93.8841 18.3389 93.4102 17.6787C92.9447 17.0186 92.1829 16.6885 91.125 16.6885C90.2617 16.6885 89.5889 17.0566 89.1064 17.793C88.6325 18.5208 88.3955 19.583 88.3955 20.9795C88.3955 22.376 88.6367 23.4255 89.1191 24.1279C89.6016 24.8219 90.2913 25.1689 91.1885 25.1689ZM107.667 16.2949C106.846 16.2949 106.203 16.5573 105.737 17.082C105.272 17.5983 105.005 18.3346 104.938 19.291H110.371C110.354 18.3346 110.104 17.5983 109.622 17.082C109.14 16.5573 108.488 16.2949 107.667 16.2949ZM108.213 28.2539C105.928 28.2539 104.142 27.6234 102.855 26.3623C101.569 25.1012 100.926 23.3154 100.926 21.0049C100.926 18.6266 101.518 16.79 102.703 15.4951C103.896 14.1917 105.543 13.54 107.642 13.54C109.647 13.54 111.209 14.1113 112.326 15.2539C113.443 16.3965 114.002 17.9749 114.002 19.9893V21.8682H104.849C104.891 22.9684 105.217 23.8275 105.826 24.4453C106.436 25.0632 107.29 25.3721 108.391 25.3721C109.245 25.3721 110.054 25.2832 110.815 25.1055C111.577 24.9277 112.373 24.6442 113.202 24.2549V27.251C112.525 27.5895 111.801 27.8392 111.031 28C110.261 28.1693 109.322 28.2539 108.213 28.2539ZM125.072 13.54C125.597 13.54 126.033 13.5781 126.38 13.6543L126.088 17.2852C125.775 17.2005 125.394 17.1582 124.945 17.1582C123.71 17.1582 122.745 17.4756 122.051 18.1104C121.365 18.7451 121.022 19.6338 121.022 20.7764V28H117.15V13.8066H120.083L120.654 16.1934H120.845C121.285 15.3978 121.877 14.7588 122.622 14.2764C123.375 13.7855 124.192 13.54 125.072 13.54Z" fill="#2C2E30"/>
</svg>
