<svg width="33" height="33" viewBox="0 0 33 33" fill="none" xmlns="http://www.w3.org/2000/svg">
<rect x="0.5" y="0.5" width="32" height="32" rx="16" stroke="white"/>
<path fill-rule="evenodd" clip-rule="evenodd" d="M22.3941 11.3038L21.5869 10.558C20.7797 9.814 19.4733 9.814 18.6689 10.558L16.4248 12.629C16.2085 12.829 16.2085 13.1531 16.4248 13.3533C16.6412 13.5533 16.9935 13.5533 17.2098 13.3533L19.4538 11.2821C19.8228 10.9395 20.4302 10.9395 20.8019 11.2821L21.6119 12.0299C21.9836 12.3727 21.9836 12.9288 21.6119 13.2719L18.0558 16.5539C17.6842 16.8965 17.0767 16.8965 16.7078 16.5539L16.0837 15.9784C15.8673 15.7782 15.515 15.7782 15.2987 15.9784C15.0823 16.1783 15.0823 16.5025 15.2987 16.7024L15.9256 17.28C16.73 18.0227 18.0337 18.0227 18.8381 17.28L22.3941 13.9977C23.2013 13.2537 23.2013 12.0476 22.3941 11.3038Z" fill="white"/>
<path fill-rule="evenodd" clip-rule="evenodd" d="M10.6033 20.6963L11.4105 21.4421C12.2177 22.1861 13.5241 22.1861 14.3313 21.4421L16.5753 19.3711C16.7917 19.1712 16.7917 18.847 16.5753 18.6468C16.3562 18.4469 16.0067 18.4469 15.7903 18.6468L13.5463 20.7181C13.1746 21.0607 12.5672 21.0607 12.1955 20.7181L11.3855 19.9702C11.0138 19.6274 11.0138 19.0713 11.3855 18.7282L14.9415 15.4462C15.3132 15.1037 15.9207 15.1037 16.2924 15.4462L16.9165 16.0218C17.1328 16.222 17.4823 16.222 17.6987 16.0218C17.9178 15.8218 17.9178 15.4977 17.6987 15.2977L17.0746 14.7201C16.2702 13.9774 14.9637 13.9774 14.1593 14.7201L10.6033 18.0024C9.7989 18.7464 9.7989 19.9523 10.6033 20.6963Z" fill="white"/>
</svg>
